<svg width="630" height="143" viewBox="0 0 630 143" fill="none" xmlns="http://www.w3.org/2000/svg">
<g filter="url(#filter0_d_7_10)">
<path d="M62.24 68.26C64.52 68.14 66.8 68.68 69.08 69.88C71.36 71.08 72.5 72.94 72.5 75.46C72.26 77.5 71.12 78.82 69.08 79.42C67.16 79.9 65.6 80.14 64.4 80.14C62 80.14 59.42 80.2 56.66 80.32C53.9 80.44 51.08 80.62 48.2 80.86C47.96 84.82 47.72 88.54 47.48 92.02C47.36 95.5 47.24 98.62 47.12 101.38C47 104.02 46.94 106.18 46.94 107.86C46.94 109.54 47 110.44 47.12 110.56C49.76 110.08 52.58 109.3 55.58 108.22C58.7 107.02 61.76 105.76 64.76 104.44C67.88 103 70.88 101.56 73.76 100.12C76.76 98.56 79.58 97.12 82.22 95.8C83.42 95.2 84.5 95.02 85.46 95.26C86.54 95.5 87.2 96.04 87.44 96.88C87.68 98.2 87.5 99.82 86.9 101.74C86.3 103.66 85.22 105.4 83.66 106.96C81.86 108.4 79.46 110.08 76.46 112C73.58 113.8 70.46 115.54 67.1 117.22C63.74 118.9 60.32 120.4 56.84 121.72C53.48 122.92 50.48 123.64 47.84 123.88C43.88 124.24 40.88 123.16 38.84 120.64C36.8 118.12 35.66 114.94 35.42 111.1C35.18 107.26 35.12 102.82 35.24 97.78C35.48 92.74 35.72 87.4 35.96 81.76C33.68 82 31.46 82.24 29.3 82.48C27.26 82.6 25.28 82.78 23.36 83.02C21.8 83.02 20.06 82.66 18.14 81.94C16.34 81.22 15.44 79.84 15.44 77.8C15.44 77.08 15.74 76.12 16.34 74.92C16.94 73.72 18.26 72.82 20.3 72.22C25.22 71.38 30.68 70.66 36.68 70.06C37.04 64.42 37.46 58.96 37.94 53.68C38.42 48.4 38.84 43.6 39.2 39.28C39.32 37.84 39.74 36.58 40.46 35.5C41.18 34.42 41.96 33.88 42.8 33.88C44.84 33.76 46.76 34.3 48.56 35.5C50.48 36.58 51.44 37.84 51.44 39.28C50.96 43.36 50.48 47.98 50 53.14C49.64 58.3 49.28 63.58 48.92 68.98C51.32 68.74 53.6 68.62 55.76 68.62C58.04 68.5 60.2 68.38 62.24 68.26ZM136.257 53.68C139.857 55 142.857 56.98 145.257 59.62C147.777 62.26 149.697 65.26 151.017 68.62C152.337 71.86 153.057 75.22 153.177 78.7C153.417 82.18 153.057 85.42 152.097 88.42C150.777 91.78 149.097 95.08 147.057 98.32C145.017 101.56 142.677 104.44 140.037 106.96C137.397 109.48 134.397 111.52 131.037 113.08C127.677 114.64 123.957 115.42 119.877 115.42C114.957 115.42 110.817 114.28 107.457 112C104.097 109.72 101.457 106.78 99.5366 103.18C97.6166 99.58 96.3566 95.5 95.7566 90.94C95.2766 86.38 95.3966 81.82 96.1166 77.26C96.5966 73.9 97.3766 70.66 98.4566 67.54C99.6566 64.3 101.157 61.48 102.957 59.08C104.757 56.56 106.797 54.52 109.077 52.96C111.477 51.4 114.177 50.62 117.177 50.62C118.857 50.62 120.957 50.98 123.477 51.7C125.997 52.3 128.337 53.2 130.497 54.4C132.057 52.96 133.977 52.72 136.257 53.68ZM129.417 66.82C128.097 65.98 126.537 64.9 124.737 63.58C123.057 62.14 121.557 61.42 120.237 61.42C118.797 61.42 117.357 62.08 115.917 63.4C114.597 64.72 113.397 66.28 112.317 68.08C111.357 69.76 110.517 71.5 109.797 73.3C109.077 75.1 108.597 76.54 108.357 77.62C107.997 79.42 107.757 81.58 107.637 84.1C107.517 86.62 107.697 89.14 108.177 91.66C108.657 94.06 109.557 96.28 110.877 98.32C112.317 100.24 114.417 101.62 117.177 102.46C118.857 102.94 120.837 102.94 123.117 102.46C125.397 101.86 127.617 100.84 129.777 99.4C132.057 97.96 134.157 96.04 136.077 93.64C138.117 91.24 139.677 88.48 140.757 85.36C141.957 81.88 141.957 78.28 140.757 74.56C139.677 70.72 137.397 67.96 133.917 66.28C133.077 66.88 132.237 67.18 131.397 67.18C130.557 67.18 129.897 67.06 129.417 66.82ZM248.499 25.24C248.139 23.08 248.259 21.1 248.859 19.3C249.579 17.5 250.959 16.48 252.999 16.24C254.799 16 256.359 16.48 257.679 17.68C259.119 18.88 260.019 20.44 260.379 22.36C262.779 36.16 264.999 49.9 267.039 63.58C269.199 77.14 271.119 90.46 272.799 103.54C273.279 107.02 273.039 109.42 272.079 110.74C271.119 111.94 269.979 112.84 268.659 113.44C267.219 114.04 265.839 114.04 264.519 113.44C263.319 112.84 262.539 111.76 262.179 110.2L261.999 109.12L261.279 109.3C257.319 110.74 253.179 111.58 248.859 111.82C244.539 111.94 240.399 111.4 236.439 110.2C232.479 109 228.939 107.08 225.819 104.44C222.819 101.68 220.659 98.2 219.339 94C216.459 84.76 218.259 76.36 224.739 68.8C227.499 65.68 230.919 62.86 234.999 60.34C239.079 57.82 243.999 55.84 249.759 54.4L252.999 53.68L248.499 25.24ZM230.319 89.5C231.039 92.38 232.359 94.6 234.279 96.16C236.199 97.72 238.479 98.8 241.119 99.4C243.759 99.88 246.579 99.94 249.579 99.58C252.579 99.22 255.519 98.56 258.399 97.6L260.019 97.06L254.979 65.38L251.379 66.28C248.859 67 246.159 68.14 243.279 69.7C240.519 71.14 238.059 72.88 235.899 74.92C233.739 76.96 232.059 79.24 230.859 81.76C229.779 84.28 229.599 86.86 230.319 89.5ZM323.815 53.68C327.415 55 330.415 56.98 332.815 59.62C335.335 62.26 337.255 65.26 338.575 68.62C339.895 71.86 340.615 75.22 340.735 78.7C340.975 82.18 340.615 85.42 339.655 88.42C338.335 91.78 336.655 95.08 334.615 98.32C332.575 101.56 330.235 104.44 327.595 106.96C324.955 109.48 321.955 111.52 318.595 113.08C315.235 114.64 311.515 115.42 307.435 115.42C302.515 115.42 298.375 114.28 295.015 112C291.655 109.72 289.015 106.78 287.095 103.18C285.175 99.58 283.915 95.5 283.315 90.94C282.835 86.38 282.955 81.82 283.675 77.26C284.155 73.9 284.935 70.66 286.015 67.54C287.215 64.3 288.715 61.48 290.515 59.08C292.315 56.56 294.355 54.52 296.635 52.96C299.035 51.4 301.735 50.62 304.735 50.62C306.415 50.62 308.515 50.98 311.035 51.7C313.555 52.3 315.895 53.2 318.055 54.4C319.615 52.96 321.535 52.72 323.815 53.68ZM316.975 66.82C315.655 65.98 314.095 64.9 312.295 63.58C310.615 62.14 309.115 61.42 307.795 61.42C306.355 61.42 304.915 62.08 303.475 63.4C302.155 64.72 300.955 66.28 299.875 68.08C298.915 69.76 298.075 71.5 297.355 73.3C296.635 75.1 296.155 76.54 295.915 77.62C295.555 79.42 295.315 81.58 295.195 84.1C295.075 86.62 295.255 89.14 295.735 91.66C296.215 94.06 297.115 96.28 298.435 98.32C299.875 100.24 301.975 101.62 304.735 102.46C306.415 102.94 308.395 102.94 310.675 102.46C312.955 101.86 315.175 100.84 317.335 99.4C319.615 97.96 321.715 96.04 323.635 93.64C325.675 91.24 327.235 88.48 328.315 85.36C329.515 81.88 329.515 78.28 328.315 74.56C327.235 70.72 324.955 67.96 321.475 66.28C320.635 66.88 319.795 67.18 318.955 67.18C318.115 67.18 317.455 67.06 316.975 66.82ZM420.758 32.26C421.358 45.34 422.378 58.9 423.818 72.94C425.258 86.86 426.818 100.18 428.498 112.9C428.858 118.18 427.418 120.88 424.178 121C423.458 121 422.738 120.76 422.018 120.28C421.298 119.68 420.638 118.96 420.038 118.12C419.438 117.28 418.838 116.38 418.238 115.42C417.758 114.46 417.458 113.62 417.338 112.9C416.378 106.78 415.478 100.3 414.638 93.46C413.798 86.62 413.018 79.78 412.298 72.94C411.698 65.98 411.158 59.2 410.678 52.6C410.198 46 409.898 39.94 409.778 34.42C410.018 31.54 410.438 29.14 411.038 27.22C411.638 25.18 412.898 24.22 414.818 24.34C416.858 24.46 418.298 25.3 419.138 26.86C420.098 28.3 420.638 30.1 420.758 32.26ZM473.495 43.06C473.255 44.26 472.415 44.92 470.975 45.04C469.535 45.16 468.335 45.22 467.375 45.22C464.375 45.34 461.255 45.64 458.015 46.12C454.895 46.6 451.595 47.32 448.115 48.28C446.675 48.76 445.115 48.58 443.435 47.74C441.755 46.9 440.735 45.22 440.375 42.7C440.375 41.74 440.735 40.96 441.455 40.36C442.175 39.76 443.015 39.22 443.975 38.74C445.535 38.02 447.395 37.42 449.555 36.94C451.715 36.34 453.875 35.92 456.035 35.68C458.315 35.44 460.475 35.38 462.515 35.5C464.555 35.5 466.235 35.68 467.555 36.04C469.475 36.64 470.975 37.54 472.055 38.74C473.255 39.94 473.735 41.38 473.495 43.06ZM469.355 103C470.195 104.92 470.615 107.02 470.615 109.3C470.735 111.46 470.135 112.96 468.815 113.8C467.135 114.88 465.335 114.82 463.415 113.62C461.495 112.42 460.055 110.8 459.095 108.76C457.775 106.24 456.755 103.18 456.035 99.58C455.315 95.86 454.775 92.2 454.415 88.6C454.055 85 453.815 81.64 453.695 78.52C453.695 75.4 453.695 73.06 453.695 71.5C453.815 69.82 454.295 68.26 455.135 66.82C455.975 65.38 457.055 64.54 458.375 64.3C460.535 64.42 462.275 65.44 463.595 67.36C464.915 69.16 465.515 71.44 465.395 74.2C465.395 76.36 465.455 78.76 465.575 81.4C465.695 84.04 465.935 86.68 466.295 89.32C466.655 91.96 467.075 94.54 467.555 97.06C468.035 99.46 468.635 101.44 469.355 103ZM520.509 62.68C520.269 61.36 520.029 60.1 519.789 58.9C519.549 57.7 518.949 56.92 517.989 56.56C515.949 55.96 513.789 55.9 511.509 56.38C509.229 56.86 507.129 57.64 505.209 58.72C503.289 59.68 501.669 60.82 500.349 62.14C499.029 63.34 498.309 64.42 498.189 65.38C497.829 67.18 498.309 68.92 499.629 70.6C500.949 72.28 502.869 73.96 505.389 75.64C509.589 78.16 513.969 80.74 518.529 83.38C523.089 86.02 526.929 88.72 530.049 91.48C533.169 94.24 535.269 97.3 536.349 100.66C537.549 103.9 537.309 107.62 535.629 111.82C534.309 115.06 531.849 117.7 528.249 119.74C524.649 121.78 520.689 123.4 516.369 124.6C512.049 125.68 507.729 126.46 503.409 126.94C499.089 127.3 495.429 127.48 492.429 127.48C491.709 127.48 490.809 127.24 489.729 126.76C488.769 126.16 487.809 125.5 486.849 124.78C486.009 124.06 485.229 123.34 484.509 122.62C483.909 121.78 483.609 121.06 483.609 120.46C483.609 118.3 484.569 116.8 486.489 115.96C488.409 115.12 490.389 114.7 492.429 114.7C495.309 114.7 498.369 114.58 501.609 114.34C504.969 113.98 508.149 113.5 511.149 112.9C514.149 112.18 516.849 111.28 519.249 110.2C521.649 109.12 523.329 107.74 524.289 106.06C525.129 104.62 524.589 102.94 522.669 101.02C520.869 98.98 518.409 96.88 515.289 94.72C512.289 92.56 508.989 90.46 505.389 88.42C501.909 86.38 498.909 84.52 496.389 82.84C493.869 81.16 491.709 79.18 489.909 76.9C488.109 74.5 486.969 71.56 486.489 68.08C486.369 64.96 487.029 61.96 488.469 59.08C489.909 56.2 491.769 53.68 494.049 51.52C496.449 49.24 499.149 47.44 502.149 46.12C505.149 44.8 508.149 44.14 511.149 44.14C516.309 44.38 520.569 45.82 523.929 48.46C527.289 50.98 529.269 54.76 529.869 59.8C529.869 61.48 529.569 62.86 528.969 63.94C528.489 65.02 527.589 65.68 526.269 65.92C524.589 66.16 523.209 65.98 522.129 65.38C521.169 64.66 520.629 63.76 520.509 62.68ZM588.705 68.26C590.985 68.14 593.265 68.68 595.545 69.88C597.825 71.08 598.965 72.94 598.965 75.46C598.725 77.5 597.585 78.82 595.545 79.42C593.625 79.9 592.065 80.14 590.865 80.14C588.465 80.14 585.885 80.2 583.125 80.32C580.365 80.44 577.545 80.62 574.665 80.86C574.425 84.82 574.185 88.54 573.945 92.02C573.825 95.5 573.705 98.62 573.585 101.38C573.465 104.02 573.405 106.18 573.405 107.86C573.405 109.54 573.465 110.44 573.585 110.56C576.225 110.08 579.045 109.3 582.045 108.22C585.165 107.02 588.225 105.76 591.225 104.44C594.345 103 597.345 101.56 600.225 100.12C603.225 98.56 606.045 97.12 608.685 95.8C609.885 95.2 610.965 95.02 611.925 95.26C613.005 95.5 613.665 96.04 613.905 96.88C614.145 98.2 613.965 99.82 613.365 101.74C612.765 103.66 611.685 105.4 610.125 106.96C608.325 108.4 605.925 110.08 602.925 112C600.045 113.8 596.925 115.54 593.565 117.22C590.205 118.9 586.785 120.4 583.305 121.72C579.945 122.92 576.945 123.64 574.305 123.88C570.345 124.24 567.345 123.16 565.305 120.64C563.265 118.12 562.125 114.94 561.885 111.1C561.645 107.26 561.585 102.82 561.705 97.78C561.945 92.74 562.185 87.4 562.425 81.76C560.145 82 557.925 82.24 555.765 82.48C553.725 82.6 551.745 82.78 549.825 83.02C548.265 83.02 546.525 82.66 544.605 81.94C542.805 81.22 541.905 79.84 541.905 77.8C541.905 77.08 542.205 76.12 542.805 74.92C543.405 73.72 544.725 72.82 546.765 72.22C551.685 71.38 557.145 70.66 563.145 70.06C563.505 64.42 563.925 58.96 564.405 53.68C564.885 48.4 565.305 43.6 565.665 39.28C565.785 37.84 566.205 36.58 566.925 35.5C567.645 34.42 568.425 33.88 569.265 33.88C571.305 33.76 573.225 34.3 575.025 35.5C576.945 36.58 577.905 37.84 577.905 39.28C577.425 43.36 576.945 47.98 576.465 53.14C576.105 58.3 575.745 63.58 575.385 68.98C577.785 68.74 580.065 68.62 582.225 68.62C584.505 68.5 586.665 68.38 588.705 68.26Z" fill="white"/>
</g>
<defs>
<filter id="filter0_d_7_10" x="0.440002" y="0.880005" width="628.825" height="141.6" filterUnits="userSpaceOnUse" color-interpolation-filters="sRGB">
<feFlood flood-opacity="0" result="BackgroundImageFix"/>
<feColorMatrix in="SourceAlpha" type="matrix" values="0 0 0 0 0 0 0 0 0 0 0 0 0 0 0 0 0 0 127 0" result="hardAlpha"/>
<feOffset/>
<feGaussianBlur stdDeviation="7.5"/>
<feComposite in2="hardAlpha" operator="out"/>
<feColorMatrix type="matrix" values="0 0 0 0 0.294874 0 0 0 0 0.0391399 0 0 0 0 0.451614 0 0 0 0.63 0"/>
<feBlend mode="normal" in2="BackgroundImageFix" result="effect1_dropShadow_7_10"/>
<feBlend mode="normal" in="SourceGraphic" in2="effect1_dropShadow_7_10" result="shape"/>
</filter>
</defs>
</svg>
